<svg width="15" height="15" viewBox="0 0 15 15" fill="none" xmlns="http://www.w3.org/2000/svg">
<path d="M4.0625 12.5C3.11458 12.5 2.30458 12.1719 1.6325 11.5156C0.960417 10.8594 0.624584 10.0573 0.625 9.10937C0.625 8.29687 0.869792 7.57292 1.35938 6.9375C1.84896 6.30208 2.48958 5.89583 3.28125 5.71875C3.54167 4.76042 4.0625 3.98438 4.84375 3.39063C5.625 2.79688 6.51042 2.5 7.5 2.5C8.71875 2.5 9.75271 2.92458 10.6019 3.77375C11.451 4.62292 11.8754 5.65667 11.875 6.875C12.5937 6.95833 13.1902 7.26833 13.6644 7.805C14.1385 8.34167 14.3754 8.96917 14.375 9.6875C14.375 10.4688 14.1015 11.1329 13.5544 11.68C13.0073 12.2271 12.3433 12.5004 11.5625 12.5H4.0625ZM4.0625 11.25H11.5625C12 11.25 12.3698 11.099 12.6719 10.7969C12.974 10.4948 13.125 10.125 13.125 9.6875C13.125 9.25 12.974 8.88021 12.6719 8.57813C12.3698 8.27604 12 8.125 11.5625 8.125H10.625V6.875C10.625 6.01042 10.3202 5.27333 9.71063 4.66375C9.10104 4.05417 8.36417 3.74958 7.5 3.75C6.63542 3.75 5.89833 4.05479 5.28875 4.66437C4.67917 5.27396 4.37458 6.01083 4.375 6.875H4.0625C3.45833 6.875 2.94271 7.08854 2.51563 7.51562C2.08854 7.94271 1.875 8.45833 1.875 9.0625C1.875 9.66667 2.08854 10.1823 2.51563 10.6094C2.94271 11.0365 3.45833 11.25 4.0625 11.25Z" fill="white"/>
</svg>
