<svg width="7" height="14" viewBox="0 0 7 14" fill="none" xmlns="http://www.w3.org/2000/svg">
<path d="M1 2.5C1 1.83696 1.26339 1.20107 1.73223 0.732233C2.20108 0.263392 2.83696 0 3.5 0C4.16304 0 4.79893 0.263392 5.26777 0.732233C5.73661 1.20107 6 1.83696 6 2.5V7.95C6.48234 8.44228 6.8086 9.06601 6.93788 9.74297C7.06715 10.4199 6.99369 11.12 6.7267 11.7554C6.45972 12.3907 6.01108 12.9332 5.43707 13.3146C4.86305 13.696 4.18919 13.8995 3.5 13.8995C2.81081 13.8995 2.13695 13.696 1.56294 13.3146C0.988919 12.9332 0.540288 12.3907 0.273299 11.7554C0.0063113 11.12 -0.0671497 10.4199 0.0621278 9.74297C0.191405 9.06601 0.517667 8.44228 1 7.95V2.5ZM3.5 1C3.10218 1 2.72065 1.15804 2.43934 1.43934C2.15804 1.72064 2 2.10218 2 2.5V8.387L1.834 8.537C1.45657 8.87452 1.19053 9.31869 1.07107 9.81073C0.951617 10.3028 0.984382 10.8195 1.16503 11.2925C1.34568 11.7655 1.6657 12.1725 2.08274 12.4597C2.49977 12.7468 2.99417 12.9005 3.5005 12.9005C4.00683 12.9005 4.50123 12.7468 4.91827 12.4597C5.33531 12.1725 5.65532 11.7655 5.83597 11.2925C6.01662 10.8195 6.04939 10.3028 5.92993 9.81073C5.81047 9.31869 5.54443 8.87452 5.167 8.537L5 8.386V2.5C5 2.10218 4.84197 1.72064 4.56066 1.43934C4.27936 1.15804 3.89783 1 3.5 1ZM4 5C4 4.86739 3.94732 4.74021 3.85355 4.64645C3.75979 4.55268 3.63261 4.5 3.5 4.5C3.36739 4.5 3.24022 4.55268 3.14645 4.64645C3.05268 4.74021 3 4.86739 3 5V9.085C2.66639 9.20295 2.38522 9.43503 2.20619 9.74024C2.02715 10.0454 1.96177 10.4041 2.0216 10.7529C2.08144 11.1016 2.26264 11.418 2.53317 11.6461C2.80371 11.8741 3.14616 11.9992 3.5 11.9992C3.85385 11.9992 4.1963 11.8741 4.46683 11.6461C4.73737 11.418 4.91856 11.1016 4.9784 10.7529C5.03823 10.4041 4.97286 10.0454 4.79382 9.74024C4.61478 9.43503 4.33361 9.20295 4 9.085V5Z" fill="white"/>
</svg>
