<svg width="44" height="44" viewBox="0 0 44 44" fill="none" xmlns="http://www.w3.org/2000/svg">
<path d="M7 27C7.65661 27 8.30679 26.8707 8.91342 26.6194C9.52004 26.3681 10.0712 25.9998 10.5355 25.5355C10.9998 25.0712 11.3681 24.52 11.6194 23.9134C11.8707 23.3068 12 22.6566 12 22C12 23.3261 12.5268 24.5979 13.4645 25.5355C14.4021 26.4732 15.6739 27 17 27C18.3261 27 19.5979 26.4732 20.5355 25.5355C21.4732 24.5979 22 23.3261 22 22C22 23.3261 22.5268 24.5979 23.4645 25.5355C24.4021 26.4732 25.6739 27 27 27C28.3261 27 29.5979 26.4732 30.5355 25.5355C31.4732 24.5979 32 23.3261 32 22C32 23.3261 32.5268 24.5979 33.4645 25.5355C34.4021 26.4732 35.6739 27 37 27C38.3261 27 39.5979 26.4732 40.5355 25.5355C41.4732 24.5979 42 23.3261 42 22C42 33.046 33.046 42 22 42C10.954 42 2 33.046 2 22C2 23.3261 2.52678 24.5979 3.46447 25.5355C4.40215 26.4732 5.67392 27 7 27ZM26 11C26 12.0609 25.5786 13.0783 24.8284 13.8284C24.0783 14.5786 23.0609 15 22 15C20.9391 15 19.9217 14.5786 19.1716 13.8284C18.4214 13.0783 18 12.0609 18 11C18 8.79 22 2 22 2C22 2 26 8.79 26 11Z" stroke="white" stroke-width="3" stroke-linecap="round" stroke-linejoin="round"/>
</svg>
