<svg width="20" height="21" viewBox="0 0 20 21" fill="none" xmlns="http://www.w3.org/2000/svg">
<path d="M19.0001 1L12.5001 19C12.4562 19.0957 12.3858 19.1769 12.2971 19.2338C12.2085 19.2906 12.1054 19.3209 12.0001 19.3209C11.8948 19.3209 11.7917 19.2906 11.703 19.2338C11.6144 19.1769 11.5439 19.0957 11.5001 19L8.00007 12L1.00007 8.5C0.904329 8.45613 0.823197 8.38569 0.766316 8.29705C0.709436 8.20842 0.679199 8.10532 0.679199 8C0.679199 7.89468 0.709436 7.79158 0.766316 7.70295C0.823197 7.61431 0.904329 7.54387 1.00007 7.5L19.0001 1Z" stroke="white" stroke-width="1.5" stroke-linecap="round" stroke-linejoin="round"/>
</svg>
