<svg width="20" height="21" viewBox="0 0 20 21" fill="none" xmlns="http://www.w3.org/2000/svg">
<path d="M10.1604 1.20559L18.2921 18.5297C18.3288 18.6284 18.3363 18.7356 18.3139 18.8385C18.2914 18.9414 18.2399 19.0357 18.1654 19.1101C18.091 19.1846 17.9967 19.2361 17.8938 19.2586C17.7909 19.281 17.6837 19.2735 17.585 19.2368L10.1604 16.7619L2.73576 19.2368C2.63703 19.2735 2.52986 19.281 2.42696 19.2586C2.32407 19.2361 2.22978 19.1846 2.15531 19.1101C2.08084 19.0357 2.02932 18.9414 2.00687 18.8385C1.98441 18.7356 1.99198 18.6284 2.02865 18.5297L10.1604 1.20559Z" stroke="white" stroke-width="2" stroke-linecap="round" stroke-linejoin="round"/>
</svg>
