<svg width="18" height="14" viewBox="0 0 18 14" fill="none" xmlns="http://www.w3.org/2000/svg">
<path d="M1 14C0.71667 14 0.479003 13.904 0.287003 13.712C0.0950034 13.52 -0.000663206 13.2827 3.46021e-06 13C3.46021e-06 12.7167 0.0960036 12.479 0.288004 12.287C0.480004 12.095 0.717337 11.9993 1 12H11C11.2833 12 11.521 12.096 11.713 12.288C11.905 12.48 12.0007 12.7173 12 13C12 13.2833 11.904 13.521 11.712 13.713C11.52 13.905 11.2827 14.0007 11 14H1ZM15 14C14.7167 14 14.479 13.904 14.287 13.712C14.095 13.52 13.9993 13.2827 14 13C14 12.7167 14.096 12.479 14.288 12.287C14.48 12.095 14.7173 11.9993 15 12H17C17.2833 12 17.521 12.096 17.713 12.288C17.905 12.48 18.0007 12.7173 18 13C18 13.2833 17.904 13.521 17.712 13.713C17.52 13.905 17.2827 14.0007 17 14H15ZM1 10C0.71667 10 0.479003 9.904 0.287003 9.712C0.0950034 9.52 -0.000663206 9.28267 3.46021e-06 9C3.46021e-06 8.71667 0.0960036 8.479 0.288004 8.287C0.480004 8.095 0.717337 7.99934 1 8H3C3.28334 8 3.521 8.096 3.713 8.288C3.905 8.48 4.00067 8.71734 4 9C4 9.28334 3.904 9.521 3.712 9.713C3.52 9.905 3.28267 10.0007 3 10H1ZM7 10C6.71667 10 6.479 9.904 6.287 9.712C6.095 9.52 5.99934 9.28267 6 9C6 8.71667 6.096 8.479 6.288 8.287C6.48 8.095 6.71734 7.99934 7 8H17C17.2833 8 17.521 8.096 17.713 8.288C17.905 8.48 18.0007 8.71734 18 9C18 9.28334 17.904 9.521 17.712 9.713C17.52 9.905 17.2827 10.0007 17 10H7ZM1 6C0.71667 6 0.479003 5.904 0.287003 5.712C0.0950034 5.52 -0.000663206 5.28267 3.46021e-06 5C3.46021e-06 4.71667 0.0960036 4.479 0.288004 4.287C0.480004 4.095 0.717337 3.99934 1 4H12C12.2833 4 12.521 4.096 12.713 4.288C12.905 4.48 13.0007 4.71734 13 5C13 5.28334 12.904 5.521 12.712 5.713C12.52 5.905 12.2827 6.00067 12 6H1ZM16 6C15.7167 6 15.479 5.904 15.287 5.712C15.095 5.52 14.9993 5.28267 15 5C15 4.71667 15.096 4.479 15.288 4.287C15.48 4.095 15.7173 3.99934 16 4H17C17.2833 4 17.521 4.096 17.713 4.288C17.905 4.48 18.0007 4.71734 18 5C18 5.28334 17.904 5.521 17.712 5.713C17.52 5.905 17.2827 6.00067 17 6H16ZM1 2C0.71667 2 0.479003 1.904 0.287003 1.712C0.0950034 1.52 -0.000663206 1.28267 3.46021e-06 1C3.46021e-06 0.71667 0.0960036 0.479004 0.288004 0.287004C0.480004 0.0950036 0.717337 -0.000663206 1 3.4602e-06H6C6.28334 3.4602e-06 6.521 0.0960036 6.713 0.288004C6.905 0.480004 7.00067 0.717337 7 1C7 1.28334 6.904 1.521 6.712 1.713C6.52 1.905 6.28267 2.00067 6 2H1ZM10 2C9.71667 2 9.479 1.904 9.287 1.712C9.095 1.52 8.99934 1.28267 9 1C9 0.71667 9.096 0.479004 9.288 0.287004C9.48 0.0950036 9.71734 -0.000663206 10 3.4602e-06H17C17.2833 3.4602e-06 17.521 0.0960036 17.713 0.288004C17.905 0.480004 18.0007 0.717337 18 1C18 1.28334 17.904 1.521 17.712 1.713C17.52 1.905 17.2827 2.00067 17 2H10Z" fill="black"/>
</svg>
