<svg width="15" height="15" viewBox="0 0 15 15" fill="none" xmlns="http://www.w3.org/2000/svg">
<g clip-path="url(#clip0_21_17)">
<path d="M11.0156 10.3125H3.98437C3.23268 10.3077 2.50929 10.0253 1.95327 9.51942C1.39725 9.01356 1.04785 8.32002 0.972243 7.57213C0.89664 6.82424 1.10017 6.0748 1.54371 5.4679C1.98724 4.861 2.63947 4.43948 3.37499 4.28438C3.57736 3.34056 4.09726 2.49468 4.84795 1.88788C5.59865 1.28108 6.53472 0.950062 7.49999 0.950062C8.46526 0.950062 9.40134 1.28108 10.152 1.88788C10.9027 2.49468 11.4226 3.34056 11.625 4.28438C12.3605 4.43948 13.0127 4.861 13.4563 5.4679C13.8998 6.0748 14.1033 6.82424 14.0277 7.57213C13.9521 8.32002 13.6027 9.01356 13.0467 9.51942C12.4907 10.0253 11.7673 10.3077 11.0156 10.3125ZM7.49999 1.875C6.70013 1.8758 5.9281 2.16873 5.32904 2.69874C4.72998 3.22875 4.34514 3.95932 4.24687 4.75313L4.21874 5.15625H3.81562C3.25618 5.17863 2.72854 5.42233 2.34878 5.83373C1.96902 6.24514 1.76824 6.79056 1.79062 7.35C1.813 7.90944 2.0567 8.43708 2.4681 8.81684C2.87951 9.1966 3.42493 9.39738 3.98437 9.375H11.0156C11.5751 9.39738 12.1205 9.1966 12.5319 8.81684C12.9433 8.43708 13.187 7.90944 13.2094 7.35C13.2317 6.79056 13.031 6.24514 12.6512 5.83373C12.2714 5.42233 11.7438 5.17863 11.1844 5.15625H10.7812L10.7344 4.77188C10.6407 3.97787 10.2604 3.24536 9.66486 2.71195C9.06931 2.17854 8.29948 1.88092 7.49999 1.875ZM6.56249 14.0625C6.48896 14.0634 6.41639 14.0456 6.35156 14.0109C6.24115 13.9547 6.15749 13.8571 6.11884 13.7394C6.08019 13.6217 6.08971 13.4935 6.14531 13.3828L7.08281 11.5078C7.10759 11.4483 7.14437 11.3946 7.19087 11.3499C7.23736 11.3053 7.29256 11.2707 7.35303 11.2483C7.41349 11.226 7.47791 11.2163 7.54226 11.22C7.60662 11.2237 7.66952 11.2406 7.72705 11.2697C7.78457 11.2988 7.83548 11.3394 7.87659 11.3891C7.9177 11.4387 7.94812 11.4963 7.96597 11.5582C7.98381 11.6202 7.98869 11.6851 7.9803 11.7491C7.9719 11.813 7.95042 11.8745 7.91718 11.9297L6.97968 13.8047C6.94073 13.882 6.88113 13.947 6.80749 13.9925C6.73386 14.038 6.64906 14.0622 6.56249 14.0625ZM9.37499 14.0625C9.30146 14.0634 9.22889 14.0456 9.16406 14.0109C9.05365 13.9547 8.96999 13.8571 8.93134 13.7394C8.89269 13.6217 8.90221 13.4935 8.95781 13.3828L9.89531 11.5078C9.92009 11.4483 9.95687 11.3946 10.0034 11.3499C10.0499 11.3053 10.1051 11.2707 10.1655 11.2483C10.226 11.226 10.2904 11.2163 10.3548 11.22C10.4191 11.2237 10.482 11.2406 10.5395 11.2697C10.5971 11.2988 10.648 11.3394 10.6891 11.3891C10.7302 11.4387 10.7606 11.4963 10.7785 11.5582C10.7963 11.6202 10.8012 11.6851 10.7928 11.7491C10.7844 11.813 10.7629 11.8745 10.7297 11.9297L9.79218 13.8047C9.75323 13.882 9.69363 13.947 9.61999 13.9925C9.54636 14.038 9.46156 14.0622 9.37499 14.0625ZM3.74999 14.0625C3.67646 14.0634 3.60389 14.0456 3.53906 14.0109C3.42865 13.9547 3.34499 13.8571 3.30634 13.7394C3.26769 13.6217 3.27721 13.4935 3.33281 13.3828L4.27031 11.5078C4.29509 11.4483 4.33187 11.3946 4.37837 11.3499C4.42486 11.3053 4.48006 11.2707 4.54053 11.2483C4.60099 11.226 4.66541 11.2163 4.72976 11.22C4.79412 11.2237 4.85702 11.2406 4.91455 11.2697C4.97207 11.2988 5.02298 11.3394 5.06409 11.3891C5.1052 11.4387 5.13562 11.4963 5.15347 11.5582C5.17131 11.6202 5.17619 11.6851 5.1678 11.7491C5.1594 11.813 5.13792 11.8745 5.10468 11.9297L4.16718 13.8047C4.12823 13.882 4.06863 13.947 3.99499 13.9925C3.92136 14.038 3.83656 14.0622 3.74999 14.0625Z" fill="black"/>
</g>
<defs>
<clipPath id="clip0_21_17">
<rect width="15" height="15" fill="black"/>
</clipPath>
</defs>
</svg>
