<svg width="14" height="16" viewBox="0 0 14 16" fill="none" xmlns="http://www.w3.org/2000/svg">
<path d="M7.00007 16C6.86746 16 6.74028 15.9473 6.64652 15.8536C6.55275 15.7598 6.50007 15.6326 6.50007 15.5V14.207L5.85407 14.854C5.76018 14.9478 5.6329 15.0004 5.50022 15.0003C5.36753 15.0002 5.24032 14.9474 5.14657 14.8535C5.05282 14.7596 5.0002 14.6323 5.00029 14.4996C5.00039 14.367 5.05318 14.2398 5.14707 14.146L6.50007 12.793V8.866L3.10007 10.829L2.60407 12.679C2.56959 12.8071 2.48564 12.9163 2.37068 12.9825C2.25572 13.0487 2.11917 13.0665 1.99107 13.032C1.86297 12.9975 1.75381 12.9136 1.68761 12.7986C1.62141 12.6836 1.60359 12.5471 1.63807 12.419L1.87507 11.537L0.75507 12.183C0.64029 12.2483 0.504359 12.2655 0.376937 12.2309C0.249516 12.1963 0.140951 12.1127 0.0749323 11.9983C0.00891399 11.884 -0.00919728 11.7482 0.0245508 11.6205C0.0582988 11.4929 0.141166 11.3838 0.25507 11.317L1.37507 10.671L0.49107 10.434C0.427641 10.4169 0.368196 10.3875 0.316129 10.3475C0.264062 10.3074 0.220392 10.2575 0.187613 10.2006C0.154834 10.1437 0.133588 10.0809 0.125087 10.0157C0.116586 9.9506 0.120998 9.88443 0.13807 9.821C0.155141 9.75757 0.184539 9.69813 0.224585 9.64606C0.26463 9.59399 0.314539 9.55032 0.371461 9.51754C0.428383 9.48476 0.491204 9.46352 0.556338 9.45502C0.621471 9.44652 0.687641 9.45093 0.75107 9.468L2.59907 9.963L6.00007 8L2.60007 6.037L0.75007 6.532C0.622803 6.56372 0.48817 6.54416 0.37519 6.47754C0.262209 6.41092 0.179929 6.30258 0.146085 6.17586C0.112241 6.04914 0.129544 5.9142 0.194263 5.80012C0.258983 5.68604 0.365936 5.60196 0.49207 5.566L1.37507 5.329L0.25507 4.683C0.197747 4.65041 0.147437 4.6068 0.107036 4.55469C0.0666351 4.50257 0.0369415 4.44298 0.0196646 4.37935C0.00238773 4.31571 -0.00213119 4.24928 0.00636812 4.18389C0.0148674 4.1185 0.0362171 4.05544 0.0691878 3.99834C0.102159 3.94123 0.146099 3.89121 0.19848 3.85116C0.250861 3.8111 0.310647 3.7818 0.374396 3.76495C0.438146 3.7481 0.5046 3.74402 0.569932 3.75295C0.635264 3.76188 0.698184 3.78365 0.75507 3.817L1.87507 4.463L1.63807 3.58C1.61987 3.51618 1.61457 3.44937 1.62246 3.38348C1.63035 3.31758 1.65127 3.25392 1.68402 3.1962C1.71677 3.13847 1.76068 3.08785 1.81319 3.04727C1.86571 3.00669 1.92578 2.97697 1.98989 2.95985C2.05401 2.94272 2.1209 2.93854 2.18665 2.94753C2.2524 2.95652 2.31571 2.97851 2.37287 3.01222C2.43004 3.04593 2.47993 3.09068 2.51962 3.14386C2.55931 3.19705 2.58802 3.2576 2.60407 3.322L3.09907 5.171L6.50007 7.134V3.207L5.14707 1.854C5.10058 1.80758 5.06369 1.75245 5.03851 1.69177C5.01332 1.6311 5.00034 1.56605 5.00029 1.50035C5.00024 1.43466 5.01314 1.36959 5.03824 1.30888C5.06334 1.24816 5.10015 1.19299 5.14657 1.1465C5.19299 1.10001 5.24812 1.06312 5.30879 1.03794C5.36947 1.01275 5.43452 0.999768 5.50022 0.999722C5.56591 0.999676 5.63098 1.01257 5.69169 1.03767C5.75241 1.06277 5.80758 1.09958 5.85407 1.146L6.50007 1.793V0.5C6.50007 0.367392 6.55275 0.240215 6.64652 0.146447C6.74028 0.0526784 6.86746 0 7.00007 0C7.13268 0 7.25986 0.0526784 7.35362 0.146447C7.44739 0.240215 7.50007 0.367392 7.50007 0.5V1.793L8.14707 1.146C8.24096 1.05225 8.36824 0.999628 8.50092 0.999722C8.63361 0.999816 8.76082 1.05261 8.85457 1.1465C8.94832 1.24039 9.00094 1.36767 9.00085 1.50035C9.00075 1.63304 8.94796 1.76025 8.85407 1.854L7.50007 3.207V7.134L10.9001 5.171L11.3961 3.321C11.4305 3.1929 11.5145 3.08374 11.6295 3.01754C11.7444 2.95134 11.881 2.93352 12.0091 2.968C12.1372 3.00248 12.2463 3.08643 12.3125 3.20139C12.3787 3.31635 12.3965 3.4529 12.3621 3.581L12.1261 4.463L13.2461 3.817C13.3608 3.75174 13.4968 3.73453 13.6242 3.76913C13.7516 3.80372 13.8602 3.88731 13.9262 4.00165C13.9922 4.116 14.0103 4.25181 13.9766 4.37946C13.9428 4.50711 13.86 4.61622 13.7461 4.683L12.6261 5.329L13.5091 5.566C13.6372 5.60048 13.7463 5.68443 13.8125 5.79939C13.8787 5.91435 13.8965 6.0509 13.8621 6.179C13.8276 6.3071 13.7436 6.41626 13.6287 6.48246C13.5137 6.54866 13.3772 6.56648 13.2491 6.532L11.4011 6.037L8.00007 8L11.4001 9.963L13.2491 9.468C13.3772 9.43365 13.5137 9.4516 13.6285 9.5179C13.7434 9.58419 13.8272 9.6934 13.8616 9.8215C13.8959 9.9496 13.878 10.0861 13.8117 10.201C13.7454 10.3158 13.6362 10.3997 13.5081 10.434L12.6251 10.671L13.7451 11.317C13.859 11.3838 13.9418 11.4929 13.9756 11.6205C14.0093 11.7482 13.9912 11.884 13.9252 11.9983C13.8592 12.1127 13.7506 12.1963 13.6232 12.2309C13.4958 12.2655 13.3598 12.2483 13.2451 12.183L12.1251 11.537L12.3611 12.42C12.3793 12.4838 12.3846 12.5506 12.3767 12.6165C12.3688 12.6824 12.3479 12.7461 12.3151 12.8038C12.2824 12.8615 12.2385 12.9122 12.1859 12.9527C12.1334 12.9933 12.0734 13.023 12.0092 13.0402C11.9451 13.0573 11.8782 13.0615 11.8125 13.0525C11.7467 13.0435 11.6834 13.0215 11.6263 12.9878C11.5691 12.9541 11.5192 12.9093 11.4795 12.8561C11.4398 12.803 11.4111 12.7424 11.3951 12.678L10.9001 10.829L7.50007 8.866V12.793L8.85307 14.146C8.94696 14.2398 8.99975 14.367 8.99985 14.4996C8.99994 14.6323 8.94732 14.7596 8.85357 14.8535C8.75982 14.9474 8.6326 15.0002 8.49992 15.0003C8.36724 15.0004 8.23996 14.9478 8.14607 14.854L7.49907 14.207V15.5C7.49907 15.6326 7.44639 15.7598 7.35262 15.8536C7.25885 15.9473 7.13268 16 7.00007 16Z" fill="black"/>
</svg>
