<svg width="22" height="22" viewBox="0 0 22 22" fill="none" xmlns="http://www.w3.org/2000/svg">
<path fill-rule="evenodd" clip-rule="evenodd" d="M11 0.25C11.1989 0.25 11.3897 0.329018 11.5303 0.46967C11.671 0.610322 11.75 0.801088 11.75 1V2C11.75 2.19891 11.671 2.38968 11.5303 2.53033C11.3897 2.67098 11.1989 2.75 11 2.75C10.8011 2.75 10.6103 2.67098 10.4697 2.53033C10.329 2.38968 10.25 2.19891 10.25 2V1C10.25 0.801088 10.329 0.610322 10.4697 0.46967C10.6103 0.329018 10.8011 0.25 11 0.25ZM3.399 3.399C3.53963 3.25855 3.73025 3.17966 3.929 3.17966C4.12775 3.17966 4.31837 3.25855 4.459 3.399L4.852 3.791C4.98869 3.93239 5.06437 4.1218 5.06276 4.31845C5.06114 4.5151 4.98235 4.70325 4.84336 4.84237C4.70437 4.98149 4.5163 5.06046 4.31965 5.06226C4.123 5.06406 3.93352 4.98855 3.792 4.852L3.399 4.459C3.25855 4.31837 3.17966 4.12775 3.17966 3.929C3.17966 3.73025 3.25855 3.53963 3.399 3.399ZM18.601 3.399C18.7415 3.53963 18.8203 3.73025 18.8203 3.929C18.8203 4.12775 18.7415 4.31837 18.601 4.459L18.208 4.852C18.0658 4.98448 17.8778 5.0566 17.6835 5.05317C17.4892 5.04975 17.3038 4.97103 17.1664 4.83362C17.029 4.69621 16.9503 4.51082 16.9468 4.31652C16.9434 4.12222 17.0155 3.93417 17.148 3.792L17.541 3.399C17.6816 3.25855 17.8722 3.17966 18.071 3.17966C18.2697 3.17966 18.4604 3.25855 18.601 3.399ZM10.25 5.803C9.34089 5.93431 8.48212 6.30181 7.75945 6.86879C7.03677 7.43577 6.47546 8.1824 6.13157 9.03414C5.78767 9.88589 5.67322 10.8129 5.79964 11.7227C5.92605 12.6326 6.28892 13.4933 6.852 14.219H15.148C15.7111 13.4933 16.0739 12.6326 16.2004 11.7227C16.3268 10.8129 16.2123 9.88589 15.8684 9.03414C15.5245 8.1824 14.9632 7.43577 14.2406 6.86879C13.5179 6.30181 12.6591 5.93431 11.75 5.803V9.189L12.47 8.469C12.5392 8.3974 12.622 8.3403 12.7135 8.30104C12.805 8.26178 12.9035 8.24114 13.0031 8.24032C13.1026 8.2395 13.2014 8.25852 13.2935 8.29628C13.3857 8.33403 13.4694 8.38976 13.5398 8.46021C13.6102 8.53066 13.6658 8.61443 13.7035 8.70662C13.7412 8.79881 13.7601 8.89758 13.7592 8.99716C13.7583 9.09674 13.7375 9.19515 13.6982 9.28663C13.6588 9.37812 13.6017 9.46085 13.53 9.53L11.53 11.53C11.3894 11.6705 11.1988 11.7493 11 11.7493C10.8012 11.7493 10.6106 11.6705 10.47 11.53L8.47 9.53C8.39631 9.46134 8.33721 9.37854 8.29622 9.28654C8.25523 9.19454 8.23318 9.09522 8.23141 8.99452C8.22963 8.89382 8.24816 8.79379 8.28588 8.7004C8.3236 8.60701 8.37974 8.52218 8.45096 8.45096C8.52218 8.37974 8.60701 8.3236 8.7004 8.28588C8.79379 8.24816 8.89382 8.22963 8.99452 8.23141C9.09522 8.23318 9.19454 8.25523 9.28654 8.29622C9.37854 8.33721 9.46134 8.39631 9.53 8.47L10.25 9.19V5.803ZM5.083 14.25C4.51893 13.2221 4.23232 12.0651 4.25139 10.8928C4.27047 9.72047 4.59457 8.57335 5.19178 7.56439C5.78899 6.55542 6.6387 5.71941 7.65725 5.1387C8.6758 4.55798 9.82804 4.25259 11.0005 4.25259C12.173 4.25259 13.3252 4.55798 14.3438 5.1387C15.3623 5.71941 16.212 6.55542 16.8092 7.56439C17.4064 8.57335 17.7305 9.72047 17.7496 10.8928C17.7687 12.0651 17.4821 13.2221 16.918 14.25H21C21.1989 14.25 21.3897 14.329 21.5303 14.4697C21.671 14.6103 21.75 14.8011 21.75 15C21.75 15.1989 21.671 15.3897 21.5303 15.5303C21.3897 15.671 21.1989 15.75 21 15.75H1C0.801088 15.75 0.610322 15.671 0.46967 15.5303C0.329018 15.3897 0.25 15.1989 0.25 15C0.25 14.8011 0.329018 14.6103 0.46967 14.4697C0.610322 14.329 0.801088 14.25 1 14.25H5.083ZM0.25 11C0.25 10.8011 0.329018 10.6103 0.46967 10.4697C0.610322 10.329 0.801088 10.25 1 10.25H2C2.19891 10.25 2.38968 10.329 2.53033 10.4697C2.67098 10.6103 2.75 10.8011 2.75 11C2.75 11.1989 2.67098 11.3897 2.53033 11.5303C2.38968 11.671 2.19891 11.75 2 11.75H1C0.801088 11.75 0.610322 11.671 0.46967 11.5303C0.329018 11.3897 0.25 11.1989 0.25 11ZM19.25 11C19.25 10.8011 19.329 10.6103 19.4697 10.4697C19.6103 10.329 19.8011 10.25 20 10.25H21C21.1989 10.25 21.3897 10.329 21.5303 10.4697C21.671 10.6103 21.75 10.8011 21.75 11C21.75 11.1989 21.671 11.3897 21.5303 11.5303C21.3897 11.671 21.1989 11.75 21 11.75H20C19.8011 11.75 19.6103 11.671 19.4697 11.5303C19.329 11.3897 19.25 11.1989 19.25 11ZM3.25 18C3.25 17.8011 3.32902 17.6103 3.46967 17.4697C3.61032 17.329 3.80109 17.25 4 17.25H18C18.1989 17.25 18.3897 17.329 18.5303 17.4697C18.671 17.6103 18.75 17.8011 18.75 18C18.75 18.1989 18.671 18.3897 18.5303 18.5303C18.3897 18.671 18.1989 18.75 18 18.75H4C3.80109 18.75 3.61032 18.671 3.46967 18.5303C3.32902 18.3897 3.25 18.1989 3.25 18ZM6.25 21C6.25 20.8011 6.32902 20.6103 6.46967 20.4697C6.61032 20.329 6.80109 20.25 7 20.25H15C15.1989 20.25 15.3897 20.329 15.5303 20.4697C15.671 20.6103 15.75 20.8011 15.75 21C15.75 21.1989 15.671 21.3897 15.5303 21.5303C15.3897 21.671 15.1989 21.75 15 21.75H7C6.80109 21.75 6.61032 21.671 6.46967 21.5303C6.32902 21.3897 6.25 21.1989 6.25 21Z" fill="white"/>
</svg>
