<svg width="224" height="176" viewBox="0 0 224 176" fill="none" xmlns="http://www.w3.org/2000/svg">
<path d="M168 144C168 152.487 164.629 160.626 158.627 166.627C152.626 172.629 144.487 176 136 176C122.3 176 109.05 167.07 104.5 154.78C103.808 152.801 103.92 150.63 104.812 148.733C105.704 146.836 107.305 145.365 109.271 144.637C111.236 143.908 113.409 143.98 115.322 144.837C117.235 145.694 118.735 147.268 119.5 149.22C121.74 155.27 129 160 136 160C140.243 160 144.313 158.314 147.314 155.314C150.314 152.313 152 148.243 152 144C152 139.757 150.314 135.687 147.314 132.686C144.313 129.686 140.243 128 136 128H24C21.8783 128 19.8434 127.157 18.3431 125.657C16.8429 124.157 16 122.122 16 120C16 117.878 16.8429 115.843 18.3431 114.343C19.8434 112.843 21.8783 112 24 112H136C144.487 112 152.626 115.371 158.627 121.373C164.629 127.374 168 135.513 168 144ZM104 64C112.487 64 120.626 60.6286 126.627 54.6274C132.629 48.6263 136 40.4869 136 32C136 23.5131 132.629 15.3737 126.627 9.37258C120.626 3.37142 112.487 0 104 0C90.3 0 77.05 8.93 72.5 21.22C71.8077 23.1986 71.9196 25.37 72.8118 27.2669C73.7039 29.1639 75.305 30.6349 77.2706 31.3635C79.2362 32.092 81.4092 32.02 83.3223 31.1628C85.2353 30.3057 86.7354 28.7319 87.5 26.78C89.74 20.73 97 16 104 16C108.243 16 112.313 17.6857 115.314 20.6863C118.314 23.6869 120 27.7565 120 32C120 36.2435 118.314 40.3131 115.314 43.3137C112.313 46.3143 108.243 48 104 48H8C5.87827 48 3.84344 48.8429 2.34315 50.3431C0.842854 51.8434 0 53.8783 0 56C0 58.1217 0.842854 60.1566 2.34315 61.6569C3.84344 63.1571 5.87827 64 8 64H104ZM192 32C178.3 32 165.05 40.93 160.5 53.22C159.808 55.1986 159.92 57.37 160.812 59.2669C161.704 61.1639 163.305 62.6349 165.271 63.3635C167.236 64.092 169.409 64.02 171.322 63.1628C173.235 62.3057 174.735 60.7319 175.5 58.78C177.74 52.73 185 48 192 48C196.243 48 200.313 49.6857 203.314 52.6863C206.314 55.6869 208 59.7565 208 64C208 68.2435 206.314 72.3131 203.314 75.3137C200.313 78.3143 196.243 80 192 80H16C13.8783 80 11.8434 80.8429 10.3431 82.3431C8.84285 83.8434 8 85.8783 8 88C8 90.1217 8.84285 92.1566 10.3431 93.6569C11.8434 95.1572 13.8783 96 16 96H192C200.487 96 208.626 92.6286 214.627 86.6274C220.629 80.6263 224 72.4869 224 64C224 55.5131 220.629 47.3737 214.627 41.3726C208.626 35.3714 200.487 32 192 32Z" fill="black"/>
</svg>
